<svg width="640" height="400" viewBox="0 0 640 400" fill="none" xmlns="http://www.w3.org/2000/svg" role="img" aria-labelledby="title desc">
  <title id="title">Secure sharing sponsor preview</title>
  <desc id="desc">A secure file route with a shield and protected transfer marks.</desc>
  <rect width="640" height="400" rx="28" fill="#06191C"/>
  <path d="M112 112h152a36 36 0 0 1 36 36v104a36 36 0 0 1-36 36H112a36 36 0 0 1-36-36V148a36 36 0 0 1 36-36Z" fill="#10343A" stroke="#2D676D" stroke-width="3"/>
  <path d="M158 164h80" stroke="#DDF8F5" stroke-width="14" stroke-linecap="round"/>
  <path d="M158 204h112" stroke="#78989C" stroke-width="12" stroke-linecap="round"/>
  <path d="M158 242h76" stroke="#78989C" stroke-width="12" stroke-linecap="round"/>
  <path d="M340 200h108" stroke="#F3C746" stroke-width="18" stroke-linecap="round"/>
  <path d="M426 166l52 34-52 34" stroke="#F3C746" stroke-width="18" stroke-linecap="round" stroke-linejoin="round"/>
  <path d="M482 100l82 34v74c0 66-40 108-82 128-42-20-82-62-82-128v-74l82-34Z" fill="#48D8D1" stroke="#DDF8F5" stroke-width="5"/>
  <path d="M452 207l20 20 44-54" stroke="#06191C" stroke-width="16" stroke-linecap="round" stroke-linejoin="round"/>
  <circle cx="130" cy="118" r="28" fill="#F3C746"/>
  <path d="M119 118l8 9 16-20" stroke="#06191C" stroke-width="7" stroke-linecap="round" stroke-linejoin="round"/>
  <rect x="318" y="274" width="116" height="32" rx="16" fill="#123D42"/>
  <path d="M344 290h64" stroke="#48D8D1" stroke-width="8" stroke-linecap="round"/>
</svg>
